Source: Swat 2003 BluRay 1080p DTS dxva-LoNeWolf ( thanks! )

Subs: Arabic, Brazilian, Bulgarian, Chinese, Croatian, Danish, Dutch, English, Greek, Hebrew, Hungarian, Indonesian, Macedonian, Portuguese, Romanian, Servian, Slovenian, Turkish and Vietnamese.

Sample and Screens included.

General
Complete name                    : S.W.A.T-720p MP4 AAC x264 BRRip 2003-CC.mp4
Format                           : MPEG-4
Format profile                   : Base Media
Codec ID                         : isom
File size                        : 2.01 GiB
Duration                         : 1h 57mn
Overall bit rate                 : 2 449 Kbps
Encoded date                     : UTC 2012-04-03 08:14:35


Video
ID                               : 1
Format                           : AVC
Format/Info                      : Advanced Video Codec
Format profile                   : High@L3.1
Format settings, CABAC           : Yes
Format settings, ReFrames        : 5 frames
Codec ID                         : avc1
Codec ID/Info                    : Advanced Video Coding
Duration                         : 1h 57mn
Bit rate mode                    : Variable
Bit rate                         : 2 060 Kbps
Nominal bit rate                 : 2 103 Kbps
Maximum bit rate                 : 14.2 Mbps
Width                            : 1 280 pixels
Height                           : 528 pixels
Display aspect ratio             : 2.35:1
Frame rate mode                  : Variable
Frame rate                       : 23.976 fps
Minimum frame rate               : 23.810 fps
Maximum frame rate               : 24.390 fps
Resolution                       : 24 bits
Colorimetry                      : 4:2:0
Scan type                        : Progressive
Bits/(Pixel*Frame)               : 0.127
Stream size                      : 1.69 GiB (84%)
Writing library                  : x264 core 112

Audio
ID                               : 2
Format                           : AAC
Format/Info                      : Advanced Audio Codec
Format version                   : Version 4
Format profile                   : LC
Format settings, SBR             : No
Codec ID                         : 40
Duration                         : 1h 57mn
Bit rate mode                    : Variable
Bit rate                         : 384 Kbps
Maximum bit rate                 : 675 Kbps
Channel(s)                       : 6 channels
Channel positions                : Front: L C R, Rear: L R, LFE
Sampling rate                    : 48.0 KHz
Resolution                       : 16 bits
Stream size                      : 322 MiB (16%)